HIERARCHY
ROOT Hips
{
	OFFSET 0.00000 0.00000 0.00000
	CHANNELS 6 Xposition Yposition Zposition Zrotation Yrotation Xrotation 
	JOINT LHipJoint
	{
		OFFSET 0 0 0
		CHANNELS 3 Zrotation Yrotation Xrotation
		JOINT LeftHip
		{
			OFFSET 1.40252 -1.71424 0.59123
			CHANNELS 3 Zrotation Yrotation Xrotation
			JOINT LeftKnee
			{
				OFFSET 2.50071 -6.87065 0.00000
				CHANNELS 3 Zrotation Yrotation Xrotation
				JOINT LeftAnkle
				{
					OFFSET 2.50834 -6.89162 0.00000
					CHANNELS 3 Zrotation Yrotation Xrotation
					JOINT LeftToe
					{
						OFFSET 0.21528 -0.59149 1.64448
						CHANNELS 3 Zrotation Yrotation Xrotation
						End Site
						{
							OFFSET 0.00000 -0.00000 0.87921
						}
					}
				}
			}
		}
	}
	JOINT RHipJoint
	{
		OFFSET 0 0 0
		CHANNELS 3 Zrotation Yrotation Xrotation
		JOINT RightHip
		{
			OFFSET -1.53651 -1.71424 0.59123
			CHANNELS 3 Zrotation Yrotation Xrotation
			JOINT RightKnee
			{
				OFFSET -2.45783 -6.75285 0.00000
				CHANNELS 3 Zrotation Yrotation Xrotation
				JOINT RightAnkle
				{
					OFFSET -2.51921 -6.92147 0.00000
					CHANNELS 3 Zrotation Yrotation Xrotation
					JOINT RightToe
					{
						OFFSET -0.21777 -0.59831 1.59676
						CHANNELS 3 Zrotation Yrotation Xrotation
						End Site
						{
							OFFSET -0.00000 -0.00000 0.85779
						}
					}
				}
			}
		}
	}
	JOINT lowerback
	{
		OFFSET 0 0 0
		CHANNELS 3 Zrotation Yrotation Xrotation
		JOINT Chest
		{
			OFFSET 0.02212 2.07622 0.03776
			CHANNELS 3 Zrotation Yrotation Xrotation
			JOINT Chest2
			{
				OFFSET -0.00949 2.08009 -0.00123
				CHANNELS 3 Zrotation Yrotation Xrotation
				JOINT lowerneck
				{
					OFFSET 0 0 0
					CHANNELS 3 Zrotation Yrotation Xrotation
					JOINT Neck
					{
						OFFSET 0.00288 1.67184 0.11155
						CHANNELS 3 Zrotation Yrotation Xrotation
						JOINT Head
						{
							OFFSET -0.02412 1.66997 -0.22040
							CHANNELS 3 Zrotation Yrotation Xrotation
							End Site
							{
								OFFSET -0.01026 1.69043 -0.08683
							}
						}
					}
				}
				JOINT LeftCollar
				{
					OFFSET 0 0 0
					CHANNELS 3 Zrotation Yrotation Xrotation
					JOINT LeftShoulder
					{
						OFFSET 3.97941 0.74048 0.81462
CHANNELS 3 Zrotation Xrotation Yrotation
						JOINT LeftElbow
						{
OFFSET 0 -5.018340 -0.000000
CHANNELS 3 Zrotation Xrotation Yrotation
							JOINT LeftWrist
							{
OFFSET 0 -3.486900 0.000000
CHANNELS 3 Zrotation Xrotation Yrotation
								JOINT lhand
								{
									OFFSET 0 0 0
CHANNELS 3 Zrotation Xrotation Yrotation
									JOINT LFingers
									{
OFFSET 0 -0.767990 0.000000
CHANNELS 3 Zrotation Xrotation Yrotation
										End Site
										{
OFFSET 0 -0.619170 0.000000
										}
									}
								}
								JOINT LThumb
								{
OFFSET 0 0.000000 0.000000
CHANNELS 3 Zrotation Xrotation Yrotation
									End Site
									{
OFFSET 0 -0.628630 0.628630
									}
								}
							}
						}
					}
				}
				JOINT RightCollar
				{
					OFFSET 0 0 0
					CHANNELS 3 Zrotation Yrotation Xrotation
					JOINT RightShoulder
					{
						OFFSET -3.88702 1.02123 0.44091
CHANNELS 3 Zrotation Xrotation Yrotation
						JOINT RightElbow
						{
OFFSET 0 -4.701640 0.000000
CHANNELS 3 Zrotation Xrotation Yrotation
							JOINT RightWrist
							{
OFFSET 0 -3.499110 0.000000
CHANNELS 3 Zrotation Xrotation Yrotation
								JOINT rhand
								{
									OFFSET 0 0 0
CHANNELS 3 Zrotation Xrotation Yrotation
									JOINT RFingers
									{
OFFSET 0 -0.739330 0.000000
CHANNELS 3 Zrotation Xrotation Yrotation
										End Site
										{
OFFSET 0 -0.596070 0.000000
										}
									}
								}
								JOINT RThumb
								{
OFFSET 0 0.000000 0.000000
CHANNELS 3 Zrotation Xrotation Yrotation
									End Site
									{
OFFSET 0 -0.605170 0.605170
									}
								}
							}
						}
					}
				}
			}
		}
	}
}
MOTION
Frames: 4
Frame Time: 0.008333333333333333
-1.773888 16.999474 -1.796024 366.742731 8.408882 1088.518982 0.000000 0.000000 0.000000 -29.064474 -16.949783 -21.322414 4.535187 12.840334 38.773837 1.731244 -2.220951 -24.278483 3.153104 -10.938253 -32.072581 0.000000 0.000000 0.000000 3.641055 3.067717 -28.650475 -9.221641 -16.937096 56.836991 0.098463 -9.041725 -10.938802 -4.482895 12.762130 -38.507471 -6.766079 -10.092172 8.707160 1.069855 -14.240576 -3.340162 6.568669 -6.695972 -6.444059 -16.651656 -5.424812 -14.312299 12.024857 -6.644484 23.639385 6.297197 -3.235106 10.966053 0.000000 0.000000 0.000000 -9.200231 -29.287446 -40.265966 22.589275 -33.630681 6.912037 43.897489 -22.143610 -32.548217 0.000000 0.000000 0.000000 -7.125000 0.000000 0.000000 19.266618 70.663706 -11.949051 0.000000 0.000000 0.000000 -24.074838 11.923526 39.544427 -109.172139 -58.556355 -76.522290 -95.977329 -130.560144 -15.548828 0.000000 0.000000 0.000000 7.125000 0.000000 0.000000 -134.278321 -45.520054 83.315377
-1.948335 16.935676 -2.236563 367.381549 13.111369 1087.911636 0.000000 0.000000 0.000000 -29.385339 -20.575998 -20.950544 4.657064 12.986784 39.319176 1.607561 -3.482398 -23.103640 3.634462 -11.657389 -34.530502 0.000000 0.000000 0.000000 4.016849 5.214470 -23.849110 -11.658885 -18.242489 64.903233 -0.056483 -2.795606 -6.453023 -5.922295 14.352642 -44.669106 -6.911993 -10.372163 9.459473 -0.206063 -14.774616 -3.239543 5.555306 -6.931762 -6.993365 -16.335798 -4.228748 -16.456158 11.049943 -4.569024 26.905477 6.328795 -2.392660 12.252963 0.000000 0.000000 0.000000 -10.812084 -32.504842 -35.091513 20.094969 -30.756434 5.579894 39.416728 -18.415136 -31.215653 0.000000 0.000000 0.000000 -7.125000 0.000000 0.000000 11.471396 67.764342 -6.312154 0.000000 0.000000 0.000000 -22.079350 19.861526 50.175127 -116.426587 -57.188859 -82.670083 -111.065754 -181.148863 -6.100071 0.000000 0.000000 0.000000 7.125000 0.000000 0.000000 -153.058222 1.043449 148.966017
-2.178888 16.933620 -2.677679 367.641374 18.367687 1087.950184 0.000000 0.000000 0.000000 -29.157126 -24.019358 -20.275138 4.314552 12.566840 37.769061 1.311209 -6.788022 -20.478799 3.372855 -11.274473 -33.212395 0.000000 0.000000 0.000000 5.459823 5.225332 -15.956100 -10.991499 -17.927654 62.749923 -0.003230 3.932727 -2.950034 -6.917717 15.257712 -48.554501 -5.076446 -9.955253 8.725824 -1.867035 -14.050302 -2.912775 2.756641 -6.694460 -7.168700 -14.784224 -3.655890 -17.539067 9.950981 -3.804735 29.431073 5.874058 -2.061761 13.314919 0.000000 0.000000 0.000000 -9.497054 -32.288599 -34.721707 20.397670 -31.117540 5.735852 36.367546 -21.547095 -28.094117 0.000000 0.000000 0.000000 -7.125000 0.000000 0.000000 7.594043 63.366638 -3.398550 0.000000 0.000000 0.000000 -18.344925 27.272179 55.336973 -115.388752 -57.415027 -81.796043 -119.775151 -159.080592 -12.833136 0.000000 0.000000 0.000000 7.125000 0.000000 0.000000 -159.254399 -1.071717 158.124661
-2.485726 16.989480 -3.165435 368.652259 25.956867 1090.133272 0.000000 0.000000 0.000000 -29.099337 -28.362075 -20.772788 3.661344 11.695123 34.662254 0.780099 -11.585479 -16.608090 3.127923 -10.899191 -31.940738 0.000000 0.000000 0.000000 7.819711 0.939832 -8.425413 -7.612202 -15.820048 51.142628 -0.122917 3.822947 -6.401233 -9.100623 16.871384 -56.436518 -2.836900 -9.796208 7.030701 -3.331769 -13.640312 -3.229159 -0.128403 -6.639784 -7.462225 -13.383486 -3.409674 -17.578145 9.825144 -3.912787 31.407460 5.675290 -1.999754 14.148049 0.000000 0.000000 0.000000 -4.539560 -29.909445 -38.200341 23.571322 -34.705054 7.462151 36.007421 -24.811686 -24.586645 0.000000 0.000000 0.000000 -7.125000 0.000000 0.000000 7.706212 59.308410 -2.704424 0.000000 0.000000 0.000000 -13.409832 31.911109 58.263107 -107.080891 -58.867311 -74.736195 -128.232889 -148.514172 -16.143981 0.000000 0.000000 0.000000 7.125000 0.000000 0.000000 -164.898997 1.588654 163.933781
